HIERARCHY
ROOT Hips
{
	OFFSET -40.005398 108.132500 5.364305
	CHANNELS 6 Xposition Yposition Zposition Zrotation Yrotation Xrotation 
	JOINT Chest
	{
		OFFSET 0.640644 13.450890 -2.194870
		CHANNELS 3 Zrotation Yrotation Xrotation
		JOINT Chest2
		{
			OFFSET -3.798546 20.375809 5.428079
			CHANNELS 3 Zrotation Yrotation Xrotation
			JOINT Chest3
			{
				OFFSET -0.940514 14.823898 1.479015
				CHANNELS 3 Zrotation Yrotation Xrotation
				JOINT Neck
				{
					OFFSET -2.291313 16.986481 2.196725
					CHANNELS 3 Zrotation Yrotation Xrotation
					JOINT Head
					{
						OFFSET -4.026264 9.332092 2.555194
						CHANNELS 3 Zrotation Yrotation Xrotation
						End Site #name: Head_end_site
						{
							OFFSET -3.999729 9.360229 2.493200
						}
					}
				}
				JOINT LeftCollar
				{
					OFFSET 2.052128 13.107910 5.077004
					CHANNELS 3 Zrotation Yrotation Xrotation
					JOINT LeftUpArm
					{
						OFFSET 15.250038 7.531708 -4.382801
						CHANNELS 3 Zrotation Yrotation Xrotation
						JOINT LeftLowArm
						{
							OFFSET 26.584137 18.339478 9.832326
							CHANNELS 3 Zrotation Yrotation Xrotation
							JOINT LeftHand
							{
								OFFSET -10.599561 22.618546 16.643246
								CHANNELS 3 Zrotation Yrotation Xrotation
								End Site #name: LeftHand_end_site
								{
									OFFSET -2.316600 4.943420 3.637470
								}
							}
						}
					}
				}
				JOINT RightCollar
				{
					OFFSET -6.233475 12.134430 3.963337
					CHANNELS 3 Zrotation Yrotation Xrotation
					JOINT RightUpArm
					{
						OFFSET -15.772430 -2.760132 -7.218623
						CHANNELS 3 Zrotation Yrotation Xrotation
						JOINT RightLowArm
						{
							OFFSET -30.162483 -10.822769 10.621971
							CHANNELS 3 Zrotation Yrotation Xrotation
							JOINT RightHand
							{
								OFFSET -18.006989 7.050278 22.956406
								CHANNELS 3 Zrotation Yrotation Xrotation
								End Site #name: RightHand_end_site
								{
									OFFSET -3.935608 1.540863 5.017361
								}
							}
						}
					}
				}
			}
		}
	}
	JOINT LeftUpLeg
	{
		OFFSET 8.726339 0.385590 4.911360
		CHANNELS 3 Zrotation Yrotation Xrotation
		JOINT LeftLowLeg
		{
			OFFSET -21.392580 -2.505150 42.190891
			CHANNELS 3 Zrotation Yrotation Xrotation
			JOINT LeftFoot
			{
				OFFSET -14.881996 -42.143711 1.732643
				CHANNELS 3 Zrotation Yrotation Xrotation
				JOINT LeftToe
				{
					OFFSET -10.337883 -2.664154 21.109005
					CHANNELS 3 Zrotation Yrotation Xrotation
					End Site #name: LeftToe_end_site
					{
						OFFSET -5.059204 12.302036 19.560753
					}
				}
			}
		}
	}
	JOINT RightUpLeg
	{
		OFFSET -8.726353 -0.385780 -4.911330
		CHANNELS 3 Zrotation Yrotation Xrotation
		JOINT RightLowLeg
		{
			OFFSET -10.448944 -45.756992 6.413150
			CHANNELS 3 Zrotation Yrotation Xrotation
			JOINT RightFoot
			{
				OFFSET 8.124676 -40.753120 -16.545460
				CHANNELS 3 Zrotation Yrotation Xrotation
				JOINT RightToe
				{
					OFFSET -12.860359 -16.190716 11.490366
					CHANNELS 3 Zrotation Yrotation Xrotation
					End Site #name: RightToe_end_site
					{
						OFFSET -16.988148 -1.587267 16.384123
					}
				}
			}
		}
	}
}
MOTION
Frames: 6
Frame Time: 0.033333
-0.161335 106.130386 0.000000 0.000000 0.000000 0.000000 0.000000 0.000000 0.000000 0.000000 0.000000 0.000000 0.000000 0.000000 0.000000 0.000000 0.000000 0.000000 0.000000 0.000000 0.000000 0.000000 0.000000 0.000000 0.000000 0.000000 0.000000 0.000000 0.000000 -5.000000 0.000000 0.000000 0.000000 0.000000 0.000000 0.000000 0.000000 0.000000 0.000000 0.000000 0.000000 -5.000000 0.000000 0.000000 0.000000 0.000000 0.000000 0.000000 0.000000 0.000000 0.000000 0.000000 0.000000 2.955202 0.000000 0.000000 0.000000 0.000000 0.000000 0.000000 0.000000 0.000000 -0.000000 0.000000 0.000000 -2.955202 0.000000 0.000000 0.000000 
0.226894 106.389205 1.671512 0.776457 0.000000 0.000000 -0.517638 0.000000 0.000000 0.000000 0.000000 0.000000 0.000000 0.000000 0.000000 0.000000 0.000000 0.000000 0.000000 0.000000 1.000000 0.000000 0.000000 0.000000 0.000000 0.000000 -3.882286 0.000000 0.000000 -5.000000 0.000000 0.000000 0.000000 0.000000 0.000000 0.000000 0.000000 0.000000 3.882286 0.000000 0.000000 -5.000000 0.000000 0.000000 0.000000 0.000000 0.000000 6.470476 0.000000 0.000000 -10.352762 0.000000 0.000000 5.327099 0.000000 0.000000 0.000000 0.000000 0.000000 -6.470476 0.000000 0.000000 0.000000 0.000000 0.000000 -5.327099 0.000000 0.000000 0.000000 
0.588665 106.630386 3.343023 1.500000 0.000000 0.000000 -1.000000 0.000000 0.000000 0.000000 0.000000 0.000000 0.000000 0.000000 0.000000 0.000000 0.000000 0.000000 0.000000 0.000000 1.732051 0.000000 0.000000 0.000000 0.000000 0.000000 -7.500000 0.000000 0.000000 -5.000000 0.000000 0.000000 0.000000 0.000000 0.000000 0.000000 0.000000 0.000000 7.500000 0.000000 0.000000 -5.000000 0.000000 0.000000 0.000000 0.000000 0.000000 12.500000 0.000000 0.000000 -20.000000 0.000000 0.000000 7.335963 0.000000 0.000000 0.000000 0.000000 0.000000 -12.500000 0.000000 0.000000 0.000000 0.000000 0.000000 -7.335963 0.000000 0.000000 0.000000 
0.899325 106.837493 5.014535 2.121320 0.000000 0.000000 -1.414214 0.000000 0.000000 0.000000 0.000000 0.000000 0.000000 0.000000 0.000000 0.000000 0.000000 0.000000 0.000000 0.000000 2.000000 0.000000 0.000000 0.000000 0.000000 0.000000 -10.606602 0.000000 0.000000 -5.000000 0.000000 0.000000 0.000000 0.000000 0.000000 0.000000 0.000000 0.000000 10.606602 0.000000 0.000000 -5.000000 0.000000 0.000000 0.000000 0.000000 0.000000 17.677670 0.000000 0.000000 -28.284271 0.000000 0.000000 8.844893 0.000000 0.000000 0.000000 0.000000 0.000000 -17.677670 0.000000 0.000000 0.000000 0.000000 0.000000 -8.844893 0.000000 0.000000 0.000000 
1.137703 106.996411 6.686047 2.598076 0.000000 0.000000 -1.732051 0.000000 0.000000 0.000000 0.000000 0.000000 0.000000 0.000000 0.000000 0.000000 0.000000 0.000000 0.000000 0.000000 1.732051 0.000000 0.000000 0.000000 0.000000 0.000000 -12.990381 0.000000 0.000000 -5.000000 0.000000 0.000000 0.000000 0.000000 0.000000 0.000000 0.000000 0.000000 12.990381 0.000000 0.000000 -5.000000 0.000000 0.000000 0.000000 0.000000 0.000000 21.650635 0.000000 0.000000 -34.641016 0.000000 0.000000 9.751058 0.000000 0.000000 0.000000 0.000000 0.000000 -21.650635 0.000000 0.000000 0.000000 0.000000 0.000000 -9.751058 0.000000 0.000000 0.000000 
1.287554 107.096312 8.357558 2.897777 0.000000 0.000000 -1.931852 0.000000 0.000000 0.000000 0.000000 0.000000 0.000000 0.000000 0.000000 0.000000 0.000000 0.000000 0.000000 0.000000 1.000000 0.000000 0.000000 0.000000 0.000000 0.000000 -14.488887 0.000000 0.000000 -5.000000 0.000000 0.000000 0.000000 0.000000 0.000000 0.000000 0.000000 0.000000 14.488887 0.000000 0.000000 -5.000000 0.000000 0.000000 0.000000 0.000000 0.000000 24.148146 0.000000 0.000000 -38.637033 0.000000 0.000000 9.992704 0.000000 0.000000 0.000000 0.000000 0.000000 -24.148146 0.000000 0.000000 0.000000 0.000000 0.000000 -9.992704 0.000000 0.000000 0.000000 
